<svg version="1.1" xmlns="http://www.w3.org/2000/svg"
   viewBox="0 0 433.132568 432.562634"
 preserveAspectRatio="xMidYMid meet">
<metadata>
Created by potrace 1.16, written by Peter Selinger 2001-2019
</metadata>
<defs>
<linearGradient id="logoGradient" x1="0%" y1="0%" x2="100%" y2="100%">
<stop offset="0%" style="stop-color:#1e3a5f;stop-opacity:1" />
<stop offset="100%" style="stop-color:#0d9488;stop-opacity:1" />
</linearGradient>
</defs>
<g transform="translate(-18.867432,441.896104) scale(0.100000,-0.100000)"
fill="url(#logoGradient)" stroke="none">
<path d="M2312 4388 c-20 -36 -81 -98 -99 -98 -6 0 -13 -3 -15 -7 -1 -5 -19
-15 -38 -25 -77 -36 -149 -68 -155 -68 -4 0 -31 -16 -61 -36 -64 -43 -132
-132 -140 -185 -5 -30 -13 -41 -39 -53 -18 -9 -37 -16 -42 -16 -6 0 -24 -7
-42 -16 -17 -9 -38 -14 -45 -11 -7 3 -18 -4 -24 -14 -12 -19 -62 -27 -62 -10
0 16 -108 51 -155 51 -59 0 -141 -17 -192 -41 -24 -10 -46 -19 -50 -19 -5 0
-19 -6 -33 -13 -26 -14 -92 -32 -147 -41 -18 -3 -51 1 -73 9 -40 14 -42 14
-67 -11 -18 -18 -23 -31 -18 -47 22 -73 18 -111 -30 -247 -60 -172 -64 -192
-65 -267 0 -62 20 -133 47 -164 11 -14 7 -30 -32 -120 -24 -57 -45 -109 -45
-114 0 -6 -23 -16 -52 -23 -69 -16 -122 -54 -174 -124 -23 -31 -44 -54 -48
-51 -3 4 -6 -3 -6 -15 0 -32 -68 -191 -102 -238 -31 -43 -77 -72 -87 -55 -3 5
-13 -13 -23 -40 -9 -27 -12 -46 -7 -43 5 3 9 1 9 -5 0 -5 18 -21 40 -34 22
-13 37 -27 33 -30 -3 -4 -1 -7 5 -7 7 0 12 -9 12 -20 0 -22 16 -27 22 -8 3 7
13 -10 23 -37 10 -28 33 -83 52 -124 19 -40 35 -79 36 -85 1 -6 4 -13 7 -16 3
-3 27 -30 52 -61 26 -30 63 -64 83 -75 19 -10 35 -21 35 -24 0 -3 13 -5 29 -6
45 -2 61 -11 61 -38 0 -13 6 -26 13 -29 20 -8 39 -79 24 -90 -8 -6 -6 -7 6 -3
10 3 17 0 17 -7 0 -7 7 -24 14 -40 14 -25 13 -31 -16 -85 -28 -53 -30 -63 -26
-142 4 -71 12 -107 52 -214 49 -131 61 -203 43 -271 -9 -38 9 -67 44 -67 13 0
47 3 76 7 42 6 65 3 120 -16 37 -12 73 -27 80 -31 6 -5 24 -13 40 -18 15 -5
53 -18 83 -29 42 -17 75 -21 142 -20 79 1 91 4 115 27 16 15 29 20 31 13 5
-15 39 -14 44 1 3 9 14 6 39 -8 19 -11 54 -26 79 -33 69 -20 74 -24 93 -82 9
-30 24 -59 32 -65 8 -6 15 -14 15 -18 0 -4 7 -14 15 -23 8 -8 13 -18 10 -23
-3 -4 5 -10 18 -14 12 -3 34 -17 49 -31 15 -14 32 -25 38 -25 6 0 18 -4 28
-10 9 -5 51 -26 92 -45 134 -63 215 -115 182 -115 -7 0 -12 -4 -12 -10 0 -5 7
-7 15 -4 10 4 18 -3 24 -19 6 -14 19 -28 29 -31 28 -9 69 10 77 35 4 13 13 29
20 36 7 7 15 16 17 21 6 15 104 68 158 86 30 10 69 26 85 37 17 10 41 23 54
29 13 6 39 24 58 40 19 17 38 30 43 30 5 0 12 10 15 23 4 12 14 33 23 47 9 14
21 43 27 65 9 35 15 41 60 58 28 10 59 21 70 24 11 3 28 12 37 20 27 24 79 19
122 -10 32 -22 50 -27 102 -27 79 0 246 43 278 72 6 4 16 8 24 8 8 0 28 7 45
15 58 27 109 33 155 17 38 -13 45 -12 68 3 23 15 25 21 18 53 -13 61 -10 125
7 167 10 22 29 68 43 101 14 34 26 71 26 82 0 21 29 84 31 67 0 -5 4 2 9 17 4
14 3 48 -2 75 -5 26 -11 57 -12 68 -2 11 -11 34 -20 50 -9 17 -16 38 -16 48 0
9 -5 17 -12 17 -6 0 -4 7 5 18 10 10 17 29 17 41 0 13 6 35 14 49 8 15 23 46
32 69 20 48 40 60 64 38 9 -8 20 -12 23 -8 12 12 7 22 -8 17 -8 -4 -15 -4 -15
0 0 3 24 17 53 31 66 31 105 72 150 161 47 91 87 181 87 192 0 19 61 92 89
106 42 22 61 44 61 70 0 25 -33 60 -66 70 -24 7 -78 86 -98 143 -27 76 -118
238 -149 265 -42 37 -123 78 -152 78 -16 0 -25 7 -29 25 -4 14 -11 25 -16 25
-6 0 -10 10 -10 23 0 13 -4 27 -8 32 -5 6 -17 32 -26 58 -14 38 -15 51 -6 62
10 12 10 15 -1 15 -10 0 -10 3 -1 12 7 7 12 19 12 28 0 10 7 31 16 49 18 37
15 155 -6 211 -56 151 -80 222 -75 231 4 5 2 9 -4 9 -17 0 -23 63 -10 95 24
58 5 115 -38 117 -10 0 -38 -5 -63 -12 -40 -11 -52 -10 -110 8 -105 34 -154
53 -165 63 -5 5 -18 9 -30 9 -12 0 -26 5 -31 10 -33 33 -203 22 -259 -16 -45
-30 -50 -30 -121 6 -32 16 -65 30 -72 30 -18 0 -75 30 -84 44 -4 6 -8 20 -8
30 0 36 -45 108 -90 146 -47 39 -196 120 -222 120 -8 0 -24 9 -35 19 -12 11
-23 17 -26 15 -9 -9 -85 44 -99 68 -7 13 -13 32 -13 43 0 12 -9 22 -25 26 -53
15 -70 10 -88 -23z m84 -175 c16 -16 34 -29 39 -30 12 -2 105 -44 212 -94 53
-25 92 -52 112 -76 17 -20 29 -39 26 -41 -2 -2 -41 3 -87 11 -224 43 -474 42
-686 -1 l-92 -19 16 26 c22 36 93 87 156 112 94 37 199 88 231 114 18 14 34
25 37 25 3 0 19 -12 36 -27z m189 -328 c127 -16 267 -52 210 -54 -42 -2 -169
-38 -173 -49 -12 -38 -23 -40 -166 -30 -89 6 -171 6 -229 0 -79 -9 -94 -8
-114 7 -12 9 -23 21 -23 26 0 13 -115 45 -162 45 -46 1 -20 14 67 35 149 36
398 44 590 20z m-1157 -107 c9 -9 0 -19 -38 -44 -47 -31 -63 -43 -99 -74 -56
-49 -117 -95 -126 -95 -5 0 -10 -4 -10 -10 0 -5 -32 -42 -71 -82 -39 -39 -92
-101 -120 -136 -27 -35 -54 -62 -61 -60 -7 3 -15 -8 -18 -24 -8 -38 -32 -79
-42 -73 -4 3 -8 32 -8 65 0 56 13 102 50 175 7 14 15 37 19 52 4 16 11 25 19
23 8 -4 12 10 13 47 1 53 9 106 16 114 3 2 28 8 57 14 28 5 82 21 119 36 73
28 149 56 197 72 42 14 89 14 103 0z m2012 -18 c52 -17 114 -40 138 -50 23
-11 75 -27 116 -36 l75 -17 6 -51 c4 -28 16 -70 26 -92 10 -23 23 -59 28 -80
5 -22 19 -65 31 -98 18 -48 20 -63 11 -83 -6 -14 -9 -35 -6 -47 4 -15 -4 -10
-29 19 -20 22 -38 48 -42 58 -3 9 -10 17 -15 17 -5 0 -9 7 -9 15 0 9 -7 18
-15 21 -8 4 -15 13 -15 20 0 8 -7 17 -16 21 -8 3 -13 12 -10 19 3 8 1 13 -3
11 -5 -1 -55 45 -112 103 -57 58 -129 121 -159 141 -30 20 -67 48 -81 62 -14
14 -39 31 -55 38 l-29 11 30 14 c39 17 27 18 135 -16z m-1686 -19 c3 -5 -1
-11 -9 -15 -8 -3 -15 -11 -14 -18 0 -10 2 -10 6 0 2 6 13 12 24 12 13 0 17 5
12 16 -5 13 0 14 28 10 19 -3 72 -10 118 -16 46 -5 86 -11 88 -14 2 -2 -17 -6
-42 -9 -25 -4 -59 -14 -76 -23 -17 -9 -40 -14 -50 -11 -11 3 -17 2 -14 -3 5
-9 -38 -31 -98 -50 -20 -6 -43 -17 -50 -24 -21 -22 -54 -28 -60 -12 -8 21 22
61 36 47 16 -16 27 -14 27 5 0 8 -4 12 -10 9 -5 -3 -10 -1 -10 4 0 6 4 11 9
11 5 0 22 20 38 45 29 45 38 52 47 36z m1231 -5 c0 -4 37 -46 83 -92 98 -100
108 -129 30 -87 -29 15 -54 31 -56 36 -2 4 -8 7 -14 7 -6 0 -38 13 -72 30 -33
16 -101 43 -150 59 -100 32 -95 38 33 40 47 1 92 6 100 11 18 11 46 9 46 -4z
m218 -67 c11 -7 30 -20 41 -30 11 -11 25 -19 30 -19 6 0 31 -16 55 -35 24 -19
47 -35 51 -35 13 0 280 -267 280 -280 0 -7 14 -28 30 -47 17 -18 30 -39 30
-45 0 -7 9 -21 19 -32 26 -29 64 -99 49 -90 -7 4 -27 17 -44 30 -43 32 -101
54 -140 54 -26 0 -39 7 -56 31 -13 17 -22 35 -20 40 1 5 -4 9 -12 9 -8 0 -25
15 -37 33 -33 46 -75 87 -147 142 -62 46 -87 82 -79 114 2 9 -3 28 -10 44 -7
15 -10 27 -7 27 4 0 -1 10 -12 23 -26 28 -56 77 -49 77 4 0 16 -5 28 -11z
m-1663 -8 c0 -2 -11 -19 -25 -37 -25 -33 -50 -118 -39 -135 3 -6 -4 -21 -17
-35 -25 -27 -41 -32 -33 -9 4 8 1 15 -5 15 -6 0 -11 -11 -11 -25 0 -18 -4 -23
-15 -18 -10 3 -15 0 -13 -8 2 -7 -7 -15 -18 -17 -12 -2 -30 -12 -40 -23 -18
-20 -6 -27 14 -7 7 7 12 10 12 8 0 -3 -43 -49 -95 -103 -52 -54 -95 -102 -95
-107 0 -5 -8 -8 -17 -8 -60 4 -113 -18 -190 -79 l-42 -34 12 28 c12 29 47 84
58 93 3 3 30 39 60 80 73 102 234 266 328 334 83 59 106 68 96 37 -3 -11 -1
-22 5 -26 5 -3 10 2 10 14 0 37 17 67 39 67 12 0 21 -2 21 -5z m1065 -17 c109
-19 185 -41 205 -59 8 -7 33 -17 55 -21 22 -4 55 -15 73 -26 18 -10 39 -18 47
-18 7 0 20 -6 27 -13 7 -7 34 -23 61 -37 26 -14 47 -28 47 -32 0 -5 7 -8 15
-8 9 0 26 -10 38 -23 12 -12 42 -35 67 -51 107 -69 275 -270 263 -315 -4 -15
-1 -21 11 -21 10 0 13 6 9 18 -5 14 -3 13 10 -3 10 -13 12 -22 5 -26 -7 -5 -7
-13 1 -25 10 -18 10 -18 11 0 0 20 0 20 14 0 11 -14 11 -21 3 -26 -11 -7 -4
-11 14 -10 3 0 13 -16 23 -36 10 -20 26 -54 37 -74 12 -24 17 -47 13 -63 -4
-15 -2 -25 5 -25 6 0 8 8 5 18 -5 14 -3 14 10 -2 9 -11 16 -26 16 -34 0 -8 6
-28 14 -45 8 -18 17 -48 20 -67 3 -19 9 -60 15 -90 35 -191 39 -303 18 -456
-20 -148 -57 -273 -120 -404 -78 -162 -144 -267 -212 -335 -11 -12 -41 -44
-67 -73 -93 -100 -223 -195 -373 -270 -114 -57 -159 -74 -180 -66 -8 4 -15 2
-15 -4 0 -13 -43 -29 -113 -41 -31 -6 -66 -15 -77 -21 -32 -17 -442 -8 -510
12 -30 8 -83 21 -117 27 -34 6 -74 18 -90 26 -15 8 -33 15 -38 15 -13 0 -180
85 -215 110 -14 9 -41 25 -62 34 -20 10 -55 34 -77 55 -23 21 -41 35 -41 32 0
-3 -34 28 -75 69 -41 41 -75 80 -75 87 0 7 -4 13 -8 13 -5 0 -21 18 -38 40
-16 23 -43 60 -61 83 -18 23 -30 43 -28 45 2 2 -4 12 -13 22 -34 37 -98 177
-138 300 -13 41 -28 89 -33 105 -18 55 -24 114 -13 128 6 7 8 24 5 37 -6 22
-7 22 -13 5 -4 -11 -10 27 -13 83 -6 104 12 322 32 384 6 18 22 67 35 108 21
67 44 127 53 139 2 3 9 -3 16 -12 17 -24 57 -11 57 18 0 27 -34 40 -51 19 -7
-8 -14 -13 -16 -11 -5 6 86 168 118 209 16 20 29 41 29 47 0 5 22 33 50 63 27
29 50 56 50 60 0 11 112 113 121 111 5 -2 18 6 29 17 11 11 17 20 13 20 -8 0
85 68 112 81 11 6 47 26 80 45 85 48 161 84 178 84 7 0 17 3 21 7 4 4 26 13
49 19 23 6 77 21 121 33 152 42 375 48 561 15z m-1009 -101 c-10 -10 -19 5
-10 18 6 11 8 11 12 0 2 -7 1 -15 -2 -18z m-545 -545 c-17 -23 -31 -49 -31
-58 0 -9 -9 -26 -20 -38 -11 -12 -20 -27 -20 -34 0 -11 -31 -97 -73 -200 -20
-47 -36 -4 -37 95 0 87 12 133 31 122 5 -4 9 0 9 8 0 19 136 147 156 147 12 0
8 -10 -15 -42z m2664 -10 c33 -29 69 -60 78 -68 57 -47 59 -51 53 -89 -3 -20
-9 -77 -13 -128 -7 -107 -28 -121 -30 -20 -2 42 -7 65 -18 73 -8 6 -15 15 -15
19 0 5 -11 31 -24 59 -13 28 -26 60 -28 71 -1 11 -10 28 -19 37 -21 24 -60 98
-51 98 4 0 34 -24 67 -52z m-2897 -436 c12 -24 20 -47 17 -52 -9 -15 6 -41 19
-31 8 7 11 -50 10 -220 -1 -212 -3 -231 -21 -252 -33 -38 -47 -80 -53 -162 -6
-89 -8 -87 -38 40 -58 242 -48 623 20 840 l13 40 5 -80 c4 -56 12 -93 28 -123z
m3132 150 c0 -9 6 -46 14 -82 44 -201 55 -365 35 -505 -5 -38 -12 -97 -15
-130 -3 -33 -11 -82 -19 -110 -8 -27 -17 -63 -20 -79 -3 -15 -8 -26 -12 -23
-4 5 -23 128 -26 179 -1 9 -3 15 -5 13 -2 -2 -14 8 -26 23 -21 26 -21 35 -21
265 1 150 5 241 11 245 22 15 53 100 59 164 4 37 11 65 16 62 5 -3 9 -13 9
-22z m-3305 -39 c-20 -46 -54 -306 -55 -408 0 -86 14 -208 40 -335 11 -52 18
-96 16 -98 -3 -2 -22 13 -44 32 -41 37 -84 115 -122 219 -12 31 -26 57 -31 57
-5 0 -9 6 -9 13 0 8 -14 33 -30 55 -36 50 -36 55 -6 95 24 32 62 111 87 180 7
20 16 37 19 37 4 0 12 18 19 41 7 22 19 43 27 46 7 3 12 9 9 13 -3 5 9 22 26
39 34 34 66 42 54 14z m3474 -10 c17 -15 31 -33 31 -41 0 -7 6 -15 14 -18 8
-3 17 -16 20 -30 4 -13 11 -24 16 -24 6 0 10 -11 10 -24 0 -14 5 -28 10 -31 7
-4 8 -24 4 -51 -4 -30 -3 -44 5 -44 6 0 11 8 11 17 0 15 2 14 15 -3 8 -10 15
-26 15 -35 0 -9 18 -39 40 -67 22 -28 37 -52 33 -54 -8 -3 -46 -58 -74 -108
-8 -14 -25 -52 -38 -85 -38 -97 -74 -165 -105 -196 -28 -27 -65 -41 -51 -19 3
5 10 37 15 72 5 35 13 83 19 108 16 70 14 419 -3 493 -23 102 -33 167 -25 167
4 0 21 -12 38 -27z m-3205 -810 c10 -38 22 -77 26 -88 37 -84 57 -144 47 -142
-7 1 -12 -11 -12 -30 0 -18 -3 -33 -7 -33 -5 0 -8 5 -8 10 0 6 -4 10 -10 10
-13 0 -50 37 -43 44 3 3 -6 8 -19 11 l-24 6 4 117 c4 103 13 162 25 162 2 0
12 -30 21 -67z m2920 39 c2 -4 6 -63 7 -131 l3 -124 -34 -26 c-19 -14 -54 -45
-77 -67 -45 -44 -73 -60 -73 -44 0 6 5 10 11 10 5 0 8 4 5 9 -6 9 31 102 44
111 3 3 17 37 29 75 13 39 29 81 36 95 14 28 29 81 27 93 -3 9 15 9 22 -1z
m-2804 -324 c11 -18 20 -39 20 -45 0 -18 -24 -16 -50 5 -18 15 -20 21 -11 45
6 15 13 27 16 27 3 0 14 -15 25 -32z m47 -84 c-3 -3 -12 -4 -19 -1 -8 3 -5 6
6 6 11 1 17 -2 13 -5z m2715 -33 c-10 -17 -22 -28 -25 -24 -4 3 -18 -6 -32
-21 -14 -15 -30 -24 -36 -21 -5 4 13 24 43 46 29 22 55 44 57 50 1 6 5 8 8 6
2 -3 -4 -19 -15 -36z m-2803 -30 c10 -17 89 -41 136 -41 16 0 32 -13 52 -40
31 -45 222 -240 264 -271 21 -15 27 -29 32 -73 4 -43 14 -66 42 -103 40 -52
32 -69 -16 -34 -15 11 -33 21 -39 21 -6 0 -8 5 -4 12 4 7 3 8 -5 4 -14 -9
-119 71 -225 173 -106 102 -272 312 -295 373 -10 26 -10 26 20 11 16 -8 33
-22 38 -32z m2765 -35 c-3 -9 -10 -16 -15 -16 -5 0 -4 9 3 20 14 22 21 20 12
-4z m-55 -27 c13 -23 12 -27 -13 -52 -14 -14 -26 -31 -26 -38 0 -19 -195 -239
-213 -239 -4 0 -19 -13 -33 -29 -22 -26 -110 -89 -232 -165 -47 -30 -65 -29
-34 0 52 51 91 130 97 198 1 10 22 35 46 54 57 46 219 208 219 220 0 19 63 72
80 67 9 -3 28 -1 41 4 35 14 51 9 68 -20z m-2815 -59 c30 -65 156 -219 244
-300 41 -38 79 -70 84 -70 4 0 8 -5 8 -11 0 -16 61 -69 98 -84 17 -8 32 -19
32 -26 0 -6 7 -9 15 -5 8 3 15 1 15 -4 0 -5 14 -17 30 -25 17 -9 28 -21 24
-27 -9 -15 -142 -2 -171 17 -12 8 -31 15 -42 15 -29 0 -75 27 -59 34 7 3 2 4
-12 1 -28 -5 -55 8 -55 27 -1 7 -7 11 -15 9 -8 -3 -35 -4 -60 -3 -49 2 -70 20
-70 58 0 13 -4 25 -9 28 -7 5 -19 52 -26 101 -1 6 -13 34 -28 64 -15 30 -27
60 -26 65 0 6 4 1 9 -11 5 -13 14 -23 20 -23 5 0 10 -9 10 -20 0 -11 4 -20 9
-20 6 0 5 15 -1 38 -16 57 -26 71 -46 65 -14 -3 -21 2 -25 19 -9 30 -9 133 -1
141 7 6 34 -25 48 -53z m3004 -2 c2 -19 -8 -66 -21 -104 -95 -268 -107 -306
-107 -327 0 -13 -9 -17 -35 -17 -20 0 -66 -11 -103 -24 -37 -14 -98 -37 -137
-51 -75 -27 -172 -42 -202 -31 -32 13 13 38 54 30 21 -4 33 -2 33 5 0 6 -4 11
-10 11 -18 0 -10 17 13 27 39 19 283 249 342 323 70 88 85 109 85 119 0 6 5
11 10 11 6 0 13 8 17 18 9 26 35 53 47 49 6 -2 12 -19 14 -39z m-2271 -344
c17 -13 40 -24 51 -24 11 0 25 -7 32 -15 7 -8 21 -15 31 -15 11 0 19 -4 19 -9
0 -9 61 -31 188 -67 59 -17 61 -19 40 -30 -13 -7 -74 -13 -136 -15 -102 -3
-115 -2 -128 15 -7 10 -11 23 -8 28 3 5 0 7 -6 6 -7 -2 -20 11 -29 29 -9 17
-23 34 -32 36 -9 2 -31 26 -49 52 -34 49 -30 50 27 9z m1495 -17 c-12 -13 -22
-25 -22 -28 0 -2 -28 -34 -63 -70 l-62 -66 -114 6 c-63 3 -116 11 -118 16 -1
6 36 23 85 38 48 15 105 36 127 47 22 10 61 28 87 40 26 11 50 25 53 31 4 5
16 9 27 9 l21 0 -21 -23z m-757 -172 c50 0 121 4 158 9 65 8 69 8 95 -16 49
-46 85 -58 179 -59 l88 -1 -50 -14 c-137 -40 -288 -58 -480 -58 -215 0 -249 5
-240 34 6 18 4 18 -24 4 -31 -15 -24 -16 -211 26 -27 6 -14 8 54 9 98 1 181
29 190 65 4 17 10 18 78 10 40 -5 114 -9 163 -9z m-280 -242 c177 -32 471 -24
654 18 24 5 46 7 49 5 11 -12 -61 -86 -93 -95 -19 -5 -47 -18 -62 -28 -15 -11
-62 -34 -103 -52 -41 -19 -89 -44 -107 -57 -40 -30 -63 -30 -107 -1 -89 56
-108 67 -121 67 -24 0 -189 88 -222 119 -39 35 -43 56 -10 48 12 -3 67 -14
122 -24z"/>
<path d="M3015 3620 c-3 -5 1 -10 10 -10 9 0 13 5 10 10 -3 6 -8 10 -10 10 -2
0 -7 -4 -10 -10z"/>
<path d="M2190 3543 c0 -24 -1 -46 -2 -49 -2 -3 16 -7 39 -8 38 -2 43 1 52 25
19 54 -3 80 -66 76 -20 -1 -23 -7 -23 -44z"/>
<path d="M2424 3582 c-21 -14 -25 -45 -8 -70 13 -20 22 -23 50 -19 18 3 36 1
39 -4 4 -5 12 -9 18 -9 7 1 5 6 -5 13 -11 9 -14 22 -11 41 4 21 1 33 -12 43
-20 14 -54 17 -71 5z"/>
<path d="M1976 3543 c-33 -33 -33 -47 3 -72 40 -29 81 -28 83 2 1 21 1 29 -4
69 -1 9 -6 14 -10 12 -4 -3 -16 0 -27 5 -15 8 -24 5 -45 -16z"/>
<path d="M2637 3563 c-4 -3 -7 -14 -7 -24 0 -9 -5 -19 -12 -21 -7 -3 -5 -13 7
-31 13 -21 25 -27 51 -27 33 0 34 1 34 39 0 30 -6 44 -22 55 -24 17 -41 20
-51 9z"/>
<path d="M1788 3473 c-41 -11 -23 -103 22 -103 47 0 67 67 28 94 -12 9 -25 15
-28 15 -3 -1 -12 -3 -22 -6z"/>
<path d="M2837 3473 c-12 -12 -7 -60 7 -72 17 -14 79 -23 71 -10 -4 5 -2 9 3
9 18 0 22 33 7 56 -11 17 -25 24 -49 24 -18 0 -36 -3 -39 -7z"/>
<path d="M2205 3420 c-11 -5 -41 -9 -67 -9 -45 -1 -196 -47 -249 -76 -14 -8
-36 -12 -50 -9 -16 4 -20 3 -11 -3 9 -7 1 -15 -30 -29 -24 -10 -71 -38 -105
-61 -38 -27 -60 -37 -56 -27 4 12 2 15 -8 12 -8 -3 -14 -14 -13 -25 0 -10 -10
-27 -23 -37 -21 -15 -23 -15 -23 -1 0 9 -6 15 -12 13 -7 -3 -13 -16 -13 -29 0
-13 -5 -27 -12 -32 -6 -4 -38 -40 -70 -80 -35 -44 -65 -72 -74 -69 -11 3 -11
2 -1 -6 10 -7 4 -23 -28 -73 -57 -91 -88 -151 -106 -206 -8 -26 -19 -57 -24
-68 -30 -68 -45 -186 -45 -350 1 -177 11 -244 56 -370 11 -33 23 -74 26 -92 3
-18 11 -38 19 -44 8 -6 14 -16 14 -21 0 -5 8 -21 18 -36 30 -43 75 -113 87
-132 28 -47 77 -103 145 -163 41 -37 80 -71 85 -77 36 -36 279 -170 310 -170
7 0 30 -8 51 -17 22 -9 45 -16 51 -14 7 1 22 -3 33 -9 12 -6 49 -16 83 -21 81
-13 335 -20 356 -9 31 16 102 31 120 25 10 -3 31 1 47 10 16 8 37 15 46 15 9
0 19 4 22 9 3 4 26 14 51 21 25 7 48 17 51 22 7 11 124 70 124 63 0 -6 17 7
62 48 17 16 43 33 59 39 16 5 27 14 26 19 -1 5 33 46 76 91 94 99 107 115 107
128 0 6 5 10 10 10 6 0 15 10 20 23 6 12 19 36 30 52 39 59 89 174 115 261 15
49 30 97 35 106 6 10 6 18 0 20 -5 2 -2 28 6 58 37 141 -8 456 -91 635 -7 17
-22 50 -33 75 -36 84 -297 390 -332 390 -6 0 -8 5 -4 12 5 7 2 9 -7 6 -8 -3
-35 8 -59 24 -57 39 -180 100 -245 122 -27 10 -61 23 -75 31 -14 7 -52 17 -85
20 -97 12 -368 15 -390 5z m328 -125 c31 -21 57 -41 57 -45 0 -7 -47 -22 -75
-24 -5 -1 -20 -11 -34 -23 -13 -13 -32 -23 -43 -23 -10 0 -21 -7 -24 -15 -4
-8 -10 -12 -15 -9 -5 3 -9 -3 -9 -13 0 -15 -2 -16 -10 -3 -9 13 -12 13 -24 -2
-12 -17 -14 -17 -32 3 -10 12 -39 35 -64 52 -25 17 -47 33 -50 36 -3 3 -20 7
-39 8 -67 5 -55 30 34 76 35 17 107 29 99 16 -3 -5 11 -9 32 -9 29 0 34 3 26
13 -9 10 1 12 51 6 49 -5 75 -14 120 -44z m262 -31 c79 -31 81 -32 73 -40 -4
-3 -16 0 -29 6 -12 7 -50 16 -85 20 -50 6 -68 14 -89 35 -14 16 -25 29 -25 30
0 5 84 -23 155 -51z m-755 17 c-23 -20 -47 -31 -83 -35 -57 -8 -141 -44 -175
-77 -13 -11 -30 -22 -38 -23 -8 -1 -21 -13 -28 -27 -27 -51 -41 -69 -56 -68
-10 0 -11 2 -2 6 20 8 13 25 -8 18 -11 -3 -20 -2 -20 3 0 10 122 101 160 120
14 7 48 25 75 41 28 16 57 30 66 30 9 1 36 10 60 21 67 30 87 26 49 -9z m84
-116 c50 -15 136 -64 136 -77 0 -5 -7 -8 -15 -8 -8 0 -12 -6 -9 -14 4 -9 -7
-15 -35 -20 -22 -3 -44 -12 -48 -20 -4 -7 -26 -25 -47 -40 -22 -15 -46 -35
-53 -46 -25 -35 -33 -21 -33 57 0 64 4 83 25 120 14 23 21 43 15 43 -6 0 -8 5
-5 10 8 13 11 13 69 -5z m-161 -2 c2 -5 -1 -24 -9 -43 -7 -19 -13 -28 -14 -20
-1 8 -5 4 -9 -10 -4 -14 -4 -35 1 -48 11 -32 10 -64 -2 -57 -6 4 -7 11 -4 17
4 6 2 8 -3 5 -9 -6 -124 27 -142 40 -9 6 75 75 119 98 50 27 57 29 63 18z
m694 0 c-4 -3 -2 -12 4 -19 6 -7 13 -30 16 -51 22 -176 18 -188 -34 -139 -51
46 -104 81 -135 89 -35 9 -44 46 -15 66 40 29 112 60 141 60 16 1 26 -2 23 -6z
m179 -22 c34 -17 112 -88 102 -95 -1 -1 -28 -10 -59 -19 -31 -10 -62 -24 -69
-32 -24 -29 -40 -17 -40 29 0 24 -3 64 -6 90 -6 41 -5 46 13 46 10 0 37 -9 59
-19z m176 -9 c13 -16 40 -39 61 -51 45 -27 49 -44 6 -29 -28 10 -98 75 -107
99 -8 20 18 7 40 -19z m-1395 -88 c-3 -3 -12 -4 -19 -1 -8 3 -5 6 6 6 11 1 17
-2 13 -5z m918 -104 c27 -17 66 -64 48 -58 -5 2 -8 -1 -8 -7 0 -5 10 -9 23 -8
12 1 20 -2 17 -6 -8 -14 -124 -54 -139 -48 -8 3 -17 1 -19 -6 -2 -7 -5 30 -6
80 l-2 93 28 -11 c15 -6 41 -19 58 -29z m-770 20 c3 -5 15 -10 25 -10 30 0
103 -35 134 -65 23 -22 26 -29 15 -36 -8 -5 -22 -9 -31 -9 -9 0 -19 -4 -22 -9
-3 -4 -19 -11 -35 -14 -16 -3 -35 -12 -43 -19 -15 -14 -46 -35 -66 -44 -26
-13 -37 16 -36 89 1 40 6 84 12 100 11 27 35 36 47 17z m515 -7 c0 -15 -2 -16
-10 -3 -5 8 -12 11 -16 7 -4 -3 -2 -12 4 -20 9 -10 13 -157 5 -157 -1 0 -19
16 -40 35 -44 40 -70 52 -86 36 -7 -7 -16 -7 -29 0 -18 10 -18 12 9 35 42 37
52 44 59 44 3 0 17 9 31 20 32 25 73 27 73 3z m728 -20 c20 -68 22 -109 9
-148 -8 -21 -18 -40 -24 -42 -14 -5 -73 46 -73 63 0 8 -9 14 -20 14 -12 0 -20
7 -20 16 0 13 -3 14 -14 5 -11 -9 -25 -9 -55 -1 -23 6 -41 15 -41 19 0 13 47
41 69 41 11 0 30 11 43 24 31 31 58 45 89 46 21 0 28 -7 37 -37z m-1379 -5
c-14 -49 -11 -138 7 -197 8 -29 14 -54 12 -55 -18 -11 -157 -50 -171 -48 -11
1 -17 -3 -15 -10 3 -7 -13 -25 -35 -41 -37 -27 -39 -28 -53 -10 -16 21 -19
129 -4 138 6 3 10 17 10 29 0 27 82 144 108 153 9 4 23 14 30 24 6 10 25 20
42 24 16 4 32 11 35 16 4 5 15 9 25 9 16 0 17 -4 9 -32z m1496 23 c3 -5 18
-12 33 -16 32 -7 116 -77 137 -115 59 -107 71 -166 52 -258 l-9 -43 -40 40
c-44 45 -151 101 -191 101 -36 0 -39 10 -21 64 11 33 15 73 12 141 -2 69 0 95
9 95 6 0 14 -4 18 -9z m-755 -107 c0 -21 -4 -33 -10 -29 -17 10 -11 65 7 65 2
0 3 -16 3 -36z m-417 -93 c-4 -17 -8 -18 -24 -8 -13 8 -15 13 -6 19 22 14 35
9 30 -11z m896 -16 c35 -17 50 -31 53 -50 4 -18 1 -25 -11 -25 -9 0 -34 -12
-56 -25 -51 -31 -70 -33 -53 -5 10 16 10 24 0 40 -6 11 -12 36 -12 55 0 43 12
44 79 10z m-932 -7 c18 -17 23 -32 23 -70 0 -26 -4 -48 -9 -48 -5 0 -35 12
-67 27 -32 14 -63 26 -70 26 -21 0 6 32 50 61 22 14 42 26 45 26 3 0 15 -10
28 -22z m633 7 c-7 -8 -17 -12 -23 -8 -6 4 -3 9 9 14 27 11 28 11 14 -6z m-44
-30 c-26 -19 -42 -19 -26 0 7 8 20 15 29 15 13 -1 13 -3 -3 -15z m181 -62 c-2
-16 -4 -3 -4 27 0 30 2 43 4 28 2 -16 2 -40 0 -55z m-647 -4 c0 -33 -4 -59
-10 -59 -6 0 -10 29 -10 66 0 41 4 63 10 59 6 -3 10 -33 10 -66z m195 61 c3
-5 1 -10 -4 -10 -6 0 -11 5 -11 10 0 6 2 10 4 10 3 0 8 -4 11 -10z m367 -110
c-2 -2 -6 0 -10 6 -4 6 -20 18 -37 27 l-30 16 33 7 c17 3 33 12 33 18 1 6 5
-7 8 -29 4 -22 5 -42 3 -45z m-475 18 c-3 -8 -6 -5 -6 6 -1 11 2 17 5 13 3 -3
4 -12 1 -19z m-514 -85 c-9 -64 -9 -120 -1 -174 l5 -36 -40 12 c-42 12 -157
107 -157 128 0 21 96 97 145 115 55 20 57 18 48 -45z m1554 35 c59 -32 113
-85 113 -112 0 -25 -65 -104 -76 -93 -4 4 -12 1 -18 -7 -6 -7 -32 -21 -58 -29
-41 -14 -48 -14 -48 -1 0 8 5 14 10 14 6 0 11 8 11 18 1 16 2 16 6 -1 2 -9 9
-15 14 -11 5 3 7 9 4 14 -3 5 -8 42 -11 82 -3 40 -12 88 -20 107 -8 18 -14 35
-14 37 0 12 51 1 87 -18z m-1395 -38 c29 -27 59 -50 66 -50 8 0 0 -11 -16 -25
-17 -14 -35 -25 -41 -25 -6 0 -11 -4 -11 -9 0 -15 -64 -51 -73 -42 -19 19 -2
201 18 201 2 0 28 -22 57 -50z m1232 14 c16 -16 22 -106 10 -152 -6 -22 -8
-21 -48 16 -24 22 -49 42 -57 45 -10 4 -11 8 -3 14 7 4 13 17 15 28 3 11 17
26 32 33 15 7 27 17 27 23 0 13 6 11 24 -7z m-1701 -133 c-21 -54 -26 -258 -7
-282 18 -22 24 -76 13 -105 -5 -15 -12 -24 -16 -20 -12 12 -33 182 -33 271 0
109 14 211 32 232 11 13 14 11 21 -17 6 -25 4 -45 -10 -79z m2136 22 c23 -130
25 -216 7 -249 -15 -29 -15 -28 -16 44 0 41 -7 99 -16 129 -9 30 -13 57 -10
60 3 4 2 11 -3 17 -12 15 -2 76 13 76 7 0 17 -33 25 -77z m-968 47 c10 0 19
-4 19 -10 0 -11 -11 -13 -34 -4 -9 3 -16 14 -15 23 0 10 2 11 6 4 2 -7 13 -13
24 -13z m-201 -15 c0 -15 -27 -28 -41 -19 -15 9 -10 32 9 37 22 5 32 -1 32
-18z m320 -70 c-12 -13 -26 -22 -30 -20 -5 3 -11 -2 -14 -11 -4 -9 -13 -14
-21 -10 -9 3 -15 0 -15 -9 0 -8 -2 -15 -4 -15 -2 0 -11 -3 -20 -6 -25 -9 -19
14 9 39 59 51 139 79 95 32z m-429 -5 c19 -10 26 -30 12 -30 -5 0 -19 9 -33
20 -26 21 -12 27 21 10z m-266 -10 c3 -5 1 -10 -5 -10 -6 0 -20 -9 -32 -20
-12 -11 -29 -20 -37 -20 -9 0 -2 12 19 30 38 32 46 35 55 20z m969 -11 c-3 -5
0 -9 5 -9 21 0 26 -2 39 -12 18 -15 15 -28 -5 -21 -45 17 -84 46 -72 54 15 9
41 0 33 -12z m-1366 -89 c24 0 7 -24 -29 -42 -19 -10 -42 -27 -51 -39 -10 -12
-18 -16 -18 -10 0 6 -4 11 -10 11 -5 0 -10 -9 -10 -21 0 -11 -4 -17 -10 -14
-10 6 -12 163 -2 180 4 5 7 13 8 18 1 4 2 10 3 13 0 4 25 -16 53 -45 29 -28
59 -51 66 -51z m1842 50 c15 -28 9 -152 -7 -158 -7 -2 -13 3 -13 12 0 9 -4 16
-9 16 -6 0 -30 14 -55 31 -44 29 -58 49 -35 49 11 0 82 50 87 63 6 13 21 7 32
-13z m-648 -67 c-2 -18 -8 -30 -13 -28 -7 5 -7 47 1 95 4 29 16 -34 12 -67z
m118 2 c0 -8 -9 -19 -20 -25 -18 -10 -20 -8 -20 25 0 33 2 35 20 25 11 -6 20
-17 20 -25z m-870 -10 c0 -26 0 -26 -24 -8 -16 12 -20 20 -12 25 22 15 36 8
36 -17z m214 9 c4 -9 5 -17 4 -18 -2 -1 -13 -10 -25 -20 l-23 -19 0 36 c0 30
4 37 19 37 10 0 22 -7 25 -16z m444 -19 c2 -26 1 -28 -10 -14 -7 9 -18 14 -25
12 -7 -3 -9 3 -6 17 8 31 37 21 41 -15z m-571 -27 c-3 -7 -5 -2 -5 12 0 14 2
19 5 13 2 -7 2 -19 0 -25z m-401 -15 c-11 -42 -16 -142 -8 -195 8 -57 8 -58
-15 -58 -51 0 -159 69 -176 113 -9 25 53 88 123 126 64 35 83 38 76 14z m1525
-8 c44 -20 65 -34 99 -67 44 -44 44 -63 -3 -103 -22 -19 -48 -35 -57 -35 -9 0
-25 -9 -34 -19 -9 -10 -30 -21 -45 -23 -22 -3 -27 0 -26 17 0 11 4 25 8 32 4
7 8 57 8 113 1 55 4 100 9 100 4 0 23 -7 41 -15z m-1311 -10 c15 -18 35 -20
24 -3 -4 7 -3 8 5 4 11 -7 6 -26 -7 -26 -12 1 -57 40 -46 40 6 0 17 -7 24 -15z
m1043 -2 c-6 -2 -24 -15 -40 -28 -15 -14 -30 -20 -32 -14 -5 16 67 64 79 51 3
-2 0 -7 -7 -9z m136 -93 c0 -36 -5 -75 -13 -88 l-12 -23 -64 47 c-56 41 -61
48 -44 54 11 4 42 28 69 53 33 30 52 41 57 33 4 -6 8 -40 7 -76z m-1100 41
c-7 -2 -15 1 -17 8 -2 6 -8 9 -13 6 -5 -4 -6 1 -3 10 6 14 8 14 26 -2 14 -12
16 -19 7 -22z m-164 -1 c12 -11 38 -28 59 -38 l39 -19 -27 -19 c-15 -10 -46
-34 -71 -51 l-43 -33 -9 43 c-5 23 -7 63 -5 90 5 53 21 61 57 27z m1675 -10
c6 -11 8 -25 4 -31 -3 -6 -6 -26 -6 -45 0 -45 -14 -43 -22 4 -13 82 -1 119 24
72z m-1173 -32 c-2 -7 0 -21 5 -30 12 -24 3 -23 -22 2 -24 24 -25 27 -2 33 9
3 19 5 20 6 2 0 2 -5 -1 -11z m195 -40 c-7 -7 -12 -8 -12 -2 0 6 3 14 7 17 3
4 9 5 12 2 2 -3 -1 -11 -7 -17z m123 -38 c-3 -5 -15 -10 -25 -10 -10 0 -23 -6
-27 -14 -8 -14 -53 -41 -53 -31 0 2 19 18 42 35 40 29 76 40 63 20z m769 -26
c10 -26 7 -172 -4 -179 -5 -3 -10 -14 -10 -24 0 -43 -64 -132 -120 -167 -50
-32 -122 -64 -131 -58 -3 2 -2 29 3 61 4 32 5 94 1 138 -4 44 -7 85 -8 90 0 6
9 10 20 10 11 1 41 11 66 23 25 12 50 22 55 22 5 0 32 22 59 50 55 55 60 57
69 34z m-1134 2 c0 -3 -4 -8 -10 -11 -5 -3 -10 -1 -10 4 0 6 5 11 10 11 6 0
10 -2 10 -4z m-753 -55 c30 -22 84 -50 120 -62 58 -19 64 -23 57 -43 -14 -39
-16 -197 -3 -227 6 -17 9 -32 6 -36 -17 -17 -154 58 -142 78 4 5 -2 9 -11 9
-19 0 -64 37 -64 53 0 6 -6 18 -13 26 -23 27 -47 104 -47 148 0 48 15 93 31
93 6 0 35 -18 66 -39z m581 -42 c-2 -59 -16 -58 -16 1 -1 29 3 48 8 45 6 -3 9
-24 8 -46z m562 7 c0 -29 -3 -33 -20 -29 -32 8 -35 24 -9 44 13 10 25 19 27
19 1 0 2 -15 2 -34z m-660 -20 c0 -25 5 -57 10 -72 6 -15 8 -29 5 -32 -8 -8
-75 26 -75 38 0 5 -7 10 -15 10 -8 0 -28 8 -45 19 l-31 18 60 22 c33 12 63 26
66 31 14 23 25 7 25 -34z m937 -10 c4 -3 15 -6 25 -6 10 0 18 -4 18 -10 0 -5
-4 -10 -9 -10 -6 0 -30 -14 -55 -31 -25 -16 -58 -31 -73 -32 -31 -2 -31 -1
-18 95 l6 47 50 -24 c28 -12 53 -26 56 -29z m-746 1 c-8 -8 -11 -3 -11 19 1
25 2 27 11 11 8 -14 8 -22 0 -30z m556 -9 c-3 -8 -6 -5 -6 6 -1 11 2 17 5 13
3 -3 4 -12 1 -19z m317 -110 c9 -80 8 -110 -5 -102 -7 4 -9 0 -5 -14 4 -12 0
-34 -8 -51 l-16 -30 -47 16 c-73 25 -163 86 -163 112 0 5 14 11 32 15 46 9
133 52 164 81 15 14 30 25 34 25 4 0 10 -24 14 -52z m-1227 10 c26 -18 51 -36
54 -41 3 -5 24 -11 45 -14 53 -7 81 -27 65 -47 -7 -8 -19 -12 -27 -9 -8 3 -14
0 -14 -6 0 -6 -7 -11 -16 -11 -10 0 -14 -6 -11 -14 7 -19 -6 -28 -71 -50 -64
-22 -76 -15 -90 52 -18 81 -11 172 14 172 2 0 25 -14 51 -32z m591 -60 c-4
-87 -22 -97 -26 -15 -2 34 1 57 7 57 6 0 8 7 5 15 -4 8 -1 15 5 15 8 0 11 -23
9 -72z m-111 -30 c-2 -78 -3 -83 -25 -86 -14 -2 -39 9 -65 29 -67 51 -84 78
-49 80 9 0 44 13 77 29 33 16 61 29 62 29 1 1 1 -36 0 -81z m260 46 c12 -8 27
-14 32 -14 5 0 21 -4 36 -10 22 -9 24 -12 13 -30 -15 -24 -39 -35 -31 -14 3 8
-1 14 -10 14 -22 0 -31 -18 -18 -34 9 -10 8 -15 -5 -20 -21 -8 -45 22 -38 47
6 20 -11 24 -19 4 -3 -7 -3 -25 0 -40 4 -20 1 -27 -11 -27 -13 0 -16 13 -16
76 0 73 1 75 23 69 12 -4 32 -13 44 -21z m167 -135 c9 -47 7 -134 -3 -144 -5
-6 -11 -23 -13 -40 -3 -29 -4 -30 -48 -26 -75 5 -188 72 -177 104 2 7 25 17
50 24 26 6 54 19 63 27 8 9 18 16 22 16 4 0 25 16 46 35 22 19 43 35 47 35 3
0 9 -14 13 -31z m-620 15 c9 -3 16 -15 16 -26 0 -14 5 -18 15 -15 8 4 17 2 19
-2 8 -12 106 -58 139 -66 37 -8 30 -29 -11 -33 -23 -2 -32 -8 -32 -21 0 -26
-18 -38 -81 -55 -48 -13 -55 -12 -66 2 -7 9 -13 12 -13 6 0 -5 -7 4 -15 20
-10 18 -15 56 -15 105 0 91 5 100 44 85z m732 -68 c7 -8 33 -17 56 -21 24 -4
52 -12 62 -17 17 -10 16 -13 -17 -43 -19 -18 -47 -35 -62 -39 -14 -4 -23 -10
-20 -15 2 -5 -11 -11 -31 -13 -34 -4 -35 -3 -29 21 4 14 9 52 12 84 3 31 7 57
10 57 2 0 11 -6 19 -14z m-856 -52 c0 -30 5 -64 10 -75 24 -44 -60 -13 -128
47 l-34 31 48 18 c27 10 53 22 59 27 5 4 17 8 27 8 15 0 18 -9 18 -56z m-197
-67 c35 -35 84 -73 108 -84 54 -24 110 -43 130 -43 20 0 85 -63 70 -68 -6 -2
-18 1 -25 7 -7 6 -37 18 -65 27 -29 8 -55 22 -58 30 -3 7 -15 14 -27 14 -12 0
-38 11 -58 25 -20 14 -42 25 -48 25 -6 0 -8 5 -4 12 4 7 3 8 -4 4 -13 -8 -66
28 -121 81 -19 18 -38 33 -43 33 -4 0 -8 4 -8 9 0 5 19 5 44 0 35 -6 56 -21
109 -72z m1343 38 c-23 -19 -46 -31 -54 -27 -9 3 -13 1 -9 -4 3 -6 2 -16 -2
-23 -7 -11 -13 -11 -32 -1 l-23 13 27 23 c15 13 27 28 27 35 0 6 8 9 18 7 9
-3 31 1 47 8 45 18 45 6 1 -31z m-723 -51 c-5 -13 -2 -15 14 -10 13 4 26 -1
39 -15 10 -12 48 -35 84 -52 41 -20 58 -33 48 -35 -25 -5 -22 -20 4 -24 19 -3
16 -6 -18 -23 -21 -11 -42 -23 -45 -28 -24 -32 -185 -36 -252 -7 -90 40 -133
99 -73 100 11 1 39 12 61 25 22 14 49 29 60 34 11 5 29 18 39 30 23 25 48 28
39 5z m590 -44 c-22 -23 -129 -80 -149 -80 -12 0 -27 -7 -35 -16 -8 -10 -21
-13 -36 -9 -15 3 -22 1 -21 -6 3 -13 -50 -34 -60 -24 -11 12 60 65 87 65 29 0
184 74 203 97 12 15 13 14 16 -2 2 -9 0 -21 -5 -25z m-366 -82 c-3 -8 -6 -5
-6 6 -1 11 2 17 5 13 3 -3 4 -12 1 -19z"/>
<path d="M2820 3035 c0 -8 5 -15 10 -15 6 0 10 7 10 15 0 8 -4 15 -10 15 -5 0
-10 -7 -10 -15z"/>
<path d="M3271 2271 c-10 -6 -9 -10 3 -14 8 -3 18 -2 21 3 8 13 -9 20 -24 11z"/>
<path d="M1555 1981 c-7 -12 12 -24 25 -16 11 7 4 25 -10 25 -5 0 -11 -4 -15
-9z"/>
<path d="M2928 1573 c7 -3 16 -2 19 1 4 3 -2 6 -13 5 -11 0 -14 -3 -6 -6z"/>
<path d="M1860 1460 c0 -5 7 -10 15 -10 8 0 15 5 15 10 0 6 -7 10 -15 10 -8 0
-15 -4 -15 -10z"/>
<path d="M3038 3366 c-21 -15 -24 -56 -6 -74 18 -18 63 -14 81 6 22 24 21 34
-3 60 -23 25 -47 27 -72 8z"/>
<path d="M1574 3358 c-3 -4 -2 -8 3 -8 4 0 2 -4 -6 -9 -12 -8 -12 -14 -2 -39
21 -49 78 -53 99 -7 9 19 8 28 -7 46 -18 22 -77 34 -87 17z"/>
<path d="M1723 3322 c-9 -6 -7 -11 6 -19 16 -10 18 -9 14 8 -3 10 -6 19 -7 19
0 0 -6 -4 -13 -8z"/>
<path d="M3219 3237 c-22 -18 -30 -44 -19 -71 12 -33 46 -43 71 -20 22 20 24
42 7 79 -12 27 -34 32 -59 12z"/>
<path d="M1408 3195 c-10 -21 -8 -30 8 -52 27 -35 36 -37 62 -13 41 38 23 90
-30 90 -21 0 -32 -7 -40 -25z"/>
<path d="M3352 3064 c-26 -18 -28 -36 -6 -69 20 -31 68 -34 84 -6 14 28 12 57
-6 75 -20 20 -43 20 -72 0z"/>
<path d="M1288 3057 c-28 -22 -33 -62 -9 -86 25 -25 44 -27 66 -4 20 20 13 69
-13 89 -21 16 -23 16 -44 1z"/>
<path d="M3446 3004 c-4 -10 -1 -14 6 -12 15 5 23 28 10 28 -5 0 -13 -7 -16
-16z"/>
<path d="M3469 2924 c-12 -13 -20 -26 -17 -29 7 -7 68 24 68 35 0 20 -30 16
-51 -6z"/>
<path d="M3463 2864 c-15 -24 -15 -28 -1 -52 9 -14 26 -26 38 -27 27 -2 60 27
60 53 -1 53 -67 71 -97 26z"/>
<path d="M1161 2856 c-7 -8 -11 -29 -9 -47 2 -26 9 -34 30 -40 55 -14 91 47
50 84 -23 21 -56 22 -71 3z"/>
<path d="M3545 2650 c-9 -16 -11 -30 -6 -30 5 0 11 -9 14 -20 11 -41 87 -12
87 32 0 35 -12 48 -46 48 -27 0 -36 -6 -49 -30z"/>
<path d="M1104 2660 c-43 -17 -41 -84 3 -95 27 -6 47 6 64 38 9 15 6 24 -12
43 -25 26 -25 26 -55 14z"/>
<path d="M3600 2461 c-8 -6 -17 -8 -20 -6 -10 6 1 -59 12 -72 25 -32 98 -2 98
40 0 37 -54 60 -90 38z"/>
<path d="M1033 2424 c-15 -24 -15 -28 0 -52 19 -33 41 -38 72 -18 30 20 33 56
7 79 -27 25 -59 21 -79 -9z"/>
<path d="M3607 2291 c-26 -44 -9 -81 37 -81 61 0 76 73 21 98 -36 17 -38 16
-58 -17z"/>
<path d="M1032 2208 c-20 -20 -14 -54 13 -72 20 -13 29 -14 50 -4 22 10 26 17
23 47 -3 33 -6 36 -38 39 -19 2 -41 -3 -48 -10z"/>
<path d="M3581 2062 l-20 -28 25 -27 c35 -38 59 -35 83 10 15 29 14 39 -5 57
-24 25 -60 20 -83 -12z"/>
<path d="M1067 1992 c-24 -26 -21 -47 9 -76 l27 -24 29 27 c45 42 25 90 -38
91 -6 0 -18 -8 -27 -18z"/>
<path d="M3530 1866 c-6 -6 -10 -22 -10 -38 0 -37 41 -65 74 -50 34 15 41 62
13 84 -23 18 -61 20 -77 4z"/>
<path d="M1152 1799 c-19 -7 -25 -19 -36 -80 -2 -8 3 -24 10 -34 13 -17 14
-17 14 -1 0 10 7 17 18 15 32 -3 42 1 57 25 29 45 -12 94 -63 75z"/>
<path d="M3462 1676 c-24 -11 -36 -41 -30 -73 3 -14 13 -18 48 -18 43 0 45 2
48 30 4 42 -33 76 -66 61z"/>
<path d="M1227 1619 c-21 -12 -23 -33 -2 -25 12 4 13 2 3 -14 -10 -15 -9 -24
2 -45 23 -43 46 -50 75 -21 42 42 28 86 -28 86 -15 0 -26 4 -22 9 8 15 -8 20
-28 10z"/>
<path d="M3330 1486 c-8 -6 -21 -22 -29 -35 -12 -22 -11 -26 5 -38 49 -36 94
-23 94 27 0 40 -43 68 -70 46z"/>
<path d="M1364 1398 c-14 -28 -15 -33 -2 -42 13 -10 13 -13 1 -25 -16 -15 -14
-42 5 -49 6 -2 16 6 20 18 4 11 18 26 31 33 37 18 47 41 33 71 -18 40 -66 36
-88 -6z"/>
<path d="M3168 1329 c-21 -12 -24 -69 -6 -87 7 -7 24 -12 40 -12 20 0 31 8 43
30 30 57 -20 102 -77 69z"/>
<path d="M1536 1265 c-21 -32 -20 -48 2 -68 39 -36 82 -18 82 34 0 59 -53 81
-84 34z"/>
<path d="M2990 1190 c-23 -23 -24 -30 -8 -65 13 -30 47 -33 71 -7 22 24 21 55
-1 75 -24 22 -38 21 -62 -3z"/>
<path d="M1790 1181 c0 -6 -10 -11 -22 -11 -64 -1 -83 -80 -27 -110 17 -9 27
-9 45 1 21 11 24 20 24 65 0 29 -4 56 -10 59 -5 3 -10 1 -10 -4z"/>
<path d="M1495 1150 c-3 -5 1 -10 10 -10 9 0 13 5 10 10 -3 6 -8 10 -10 10 -2
0 -7 -4 -10 -10z"/>
<path d="M2788 1099 c-22 -13 -24 -63 -3 -81 9 -7 22 -18 29 -25 19 -17 56 -5
56 18 0 11 4 19 9 19 10 0 2 50 -12 68 -11 14 -55 15 -79 1z"/>
<path d="M1920 1061 c-5 -11 -10 -26 -10 -34 0 -23 34 -47 67 -47 27 0 32 5
38 31 5 22 2 36 -11 50 -23 25 -70 25 -84 0z"/>
<path d="M2175 1060 c-3 -5 1 -10 10 -10 9 0 13 5 10 10 -3 6 -8 10 -10 10 -2
0 -7 -4 -10 -10z"/>
<path d="M2420 1052 c0 -7 -16 -20 -35 -28 -48 -19 -57 -57 -23 -91 29 -28 50
-26 89 9 16 14 20 22 12 25 -7 3 -13 11 -13 19 0 8 -7 17 -15 20 -11 4 -12 10
-6 18 6 7 6 17 1 26 -7 11 -10 12 -10 2z"/>
<path d="M2130 1024 c-22 -58 0 -97 54 -92 28 3 31 7 37 45 5 41 4 43 -33 58
-49 19 -47 20 -58 -11z"/>
<path d="M2582 1038 c-7 -7 -12 -29 -12 -49 0 -31 4 -38 26 -43 44 -11 64 1
64 39 0 53 -47 84 -78 53z"/>
<path d="M395 2240 c-3 -5 -1 -10 4 -10 6 0 11 5 11 10 0 6 -2 10 -4 10 -3 0
-8 -4 -11 -10z"/>
<path d="M4200 2090 c0 -5 5 -10 11 -10 5 0 7 5 4 10 -3 6 -8 10 -11 10 -2 0
-4 -4 -4 -10z"/>
<path d="M930 1634 c0 -8 5 -12 10 -9 6 4 8 11 5 16 -9 14 -15 11 -15 -7z"/>
<path d="M3825 1200 c3 -5 8 -10 11 -10 2 0 4 5 4 10 0 6 -5 10 -11 10 -5 0
-7 -4 -4 -10z"/>
<path d="M4165 1720 c-3 -5 -1 -10 4 -10 6 0 11 5 11 10 0 6 -2 10 -4 10 -3 0
-8 -4 -11 -10z"/>
</g>
</svg>
