<svg version="1.1" xmlns="http://www.w3.org/2000/svg"
   viewBox="0 0 431.311496 430.942523"
 preserveAspectRatio="xMidYMid meet">
<metadata>
Created by potrace 1.16, written by Peter Selinger 2001-2019
</metadata>
<defs>
<linearGradient id="logoGradient" x1="0%" y1="0%" x2="100%" y2="100%">
<stop offset="0%" style="stop-color:#425990;stop-opacity:1" />
<stop offset="45%" style="stop-color:#6b9ab8;stop-opacity:1" />
<stop offset="100%" style="stop-color:#91c5d0;stop-opacity:1" />
</linearGradient>
</defs>
<g transform="translate(-19.688504,441.112388) scale(0.100000,-0.100000)"
fill="url(#logoGradient)" stroke="none">
<path d="M2316 4388 c-9 -12 -16 -28 -16 -34 0 -7 -13 -23 -29 -37 -29 -24
-55 -38 -245 -127 l-89 -42 -46 -47 c-45 -46 -73 -97 -85 -153 -4 -16 -15 -29
-29 -33 -12 -4 -64 -25 -115 -47 l-93 -41 -28 21 c-16 11 -56 28 -89 36 l-60
16 -48 -10 c-78 -16 -112 -26 -226 -69 l-108 -41 -49 0 c-28 0 -62 5 -75 12
l-26 11 -20 -18 c-21 -19 -27 -69 -10 -80 19 -12 9 -81 -26 -180 -20 -55 -47
-136 -61 -180 l-24 -80 3 -57 c3 -36 14 -75 31 -108 15 -28 27 -58 27 -66 0
-8 -5 -22 -10 -32 -6 -9 -26 -55 -44 -102 l-34 -85 -62 -19 -62 -18 -54 -54
-54 -54 -45 -98 c-86 -186 -110 -226 -146 -249 -19 -12 -43 -28 -53 -36 l-19
-13 7 -27 c4 -17 20 -34 44 -46 20 -11 45 -29 56 -42 10 -12 30 -47 43 -78 53
-122 104 -220 139 -265 41 -55 96 -92 154 -105 23 -5 44 -12 47 -15 11 -11 85
-190 90 -218 l5 -27 -20 -26 c-12 -14 -26 -51 -32 -80 -17 -84 -8 -127 75
-355 27 -72 31 -115 23 -214 l-3 -39 17 -10 16 -11 54 13 53 13 45 -11 c42
-11 149 -53 230 -89 l35 -16 106 -1 107 0 22 20 22 20 49 -1 c30 0 55 -7 67
-17 10 -9 22 -17 27 -17 4 0 34 -9 66 -21 l57 -21 11 -41 c14 -55 61 -128 102
-159 42 -31 106 -65 229 -121 52 -24 109 -56 126 -70 17 -15 37 -40 44 -57 14
-34 52 -49 75 -30 8 7 25 30 37 51 24 43 71 73 203 129 111 48 154 73 200 118
44 42 85 116 85 153 l0 24 119 48 120 48 42 -28 43 -28 95 0 96 1 65 23 c36
13 69 27 74 32 6 5 16 9 24 9 7 0 34 10 60 21 62 29 115 35 163 19 l41 -14 16
11 c10 5 19 18 21 28 2 10 -2 35 -9 56 l-13 38 12 48 c7 26 30 93 51 148 57
151 63 175 63 240 -1 60 -22 125 -50 157 l-16 18 22 52 c12 29 26 62 31 73 5
11 18 41 29 67 l19 47 44 11 c63 17 134 68 172 125 28 43 96 177 96 191 0 2
14 33 31 69 l32 64 53 36 54 35 0 24 c0 25 -20 46 -64 67 -39 18 -51 38 -129
214 -22 50 -51 108 -65 130 -34 55 -88 101 -142 120 -94 34 -87 27 -125 125
-9 25 -23 57 -31 72 -8 14 -14 37 -14 50 0 12 11 46 25 73 l24 50 1 69 c0 38
-5 86 -11 105 -6 20 -31 89 -55 154 -45 121 -54 181 -34 233 13 33 5 61 -21
74 l-19 11 -46 -16 c-47 -16 -63 -14 -156 16 -55 18 -81 28 -143 55 -59 25
-126 36 -192 32 -38 -2 -81 -11 -98 -20 -16 -10 -39 -22 -51 -28 l-21 -12 -58
27 c-31 15 -82 37 -113 49 l-55 21 -13 47 c-8 25 -29 67 -46 94 l-33 49 -60
36 c-33 20 -107 57 -164 82 -57 26 -119 58 -138 73 -18 14 -41 42 -51 62 l-17
37 -32 3 -31 3 -16 -23z m87 -170 c18 -13 93 -51 167 -85 139 -63 220 -120
220 -154 0 -10 -3 -19 -6 -19 -3 0 -52 10 -107 22 l-102 21 -210 1 -210 0 -90
-17 c-49 -9 -100 -20 -112 -23 l-23 -6 0 20 c0 36 82 96 207 150 65 29 138 66
163 82 25 16 51 30 58 30 8 0 28 -10 45 -22z m162 -322 c136 -17 265 -47 265
-62 0 -7 -28 -15 -67 -19 -80 -8 -127 -26 -141 -52 l-11 -19 -243 1 -243 0
-38 29 c-38 29 -92 45 -159 46 -24 0 -38 5 -38 13 0 14 153 52 265 66 110 13
290 12 410 -3z m-1125 -124 c0 -10 -14 -26 -30 -36 -68 -39 -230 -174 -309
-255 -82 -85 -163 -186 -215 -268 -14 -24 -33 -43 -41 -43 -22 0 -29 48 -17
110 7 30 32 105 56 165 24 61 47 135 51 166 l7 55 66 12 c37 6 101 26 142 43
119 50 181 68 238 68 l52 1 0 -18z m2078 -33 c75 -28 165 -56 198 -62 l62 -11
5 -55 c3 -31 15 -78 27 -106 12 -27 26 -63 30 -80 5 -16 18 -55 29 -85 13 -34
21 -78 21 -117 l0 -63 -15 0 c-8 0 -15 4 -15 9 0 20 -182 250 -261 331 -46 47
-122 113 -169 147 -47 35 -90 67 -97 73 -7 5 -24 15 -38 22 -24 11 -32 28 -18
41 3 4 28 7 55 7 l50 0 136 -51z m-1630 5 l112 -7 0 -12 c0 -7 -33 -23 -72
-36 -92 -29 -216 -82 -280 -120 -27 -16 -53 -29 -58 -29 -6 0 -10 8 -10 18 0
10 31 52 70 93 38 41 72 82 76 92 l6 19 22 -6 c12 -3 73 -8 134 -12z m1102 8
c0 -5 36 -48 80 -97 76 -84 94 -115 69 -115 -7 0 -62 24 -123 54 -61 29 -150
67 -198 82 -48 16 -88 34 -88 40 0 16 34 24 115 25 39 0 81 5 95 9 34 11 50
12 50 2z m275 -114 c42 -29 89 -61 103 -70 58 -38 209 -187 276 -272 76 -96
146 -203 146 -224 0 -16 -25 -15 -42 1 -30 30 -119 67 -162 67 l-21 0 -79 91
c-43 50 -113 119 -156 155 l-78 64 -11 61 c-10 59 -36 114 -66 139 -19 16 -20
40 -1 40 7 0 48 -24 91 -52z m-1715 33 c0 -6 -14 -31 -32 -57 l-32 -47 -4 -53
-4 -53 -52 -40 c-48 -37 -187 -176 -249 -249 l-27 -32 -41 0 c-41 0 -84 -18
-128 -51 -27 -22 -51 -25 -51 -6 0 12 71 118 139 208 62 81 253 258 349 324
89 60 132 78 132 56z m1110 -30 c106 -24 250 -75 341 -122 33 -16 90 -49 127
-73 82 -53 206 -152 249 -199 52 -57 166 -208 191 -252 77 -138 134 -267 159
-365 26 -98 52 -293 53 -381 0 -89 -18 -225 -47 -344 -31 -130 -116 -321 -202
-450 -25 -38 -102 -127 -171 -196 -130 -131 -226 -202 -369 -274 -95 -47 -222
-94 -285 -105 -26 -5 -64 -15 -85 -22 l-36 -13 -210 0 -210 0 -80 18 c-96 22
-183 46 -210 57 -76 31 -191 87 -250 123 -180 106 -314 233 -434 410 -73 107
-147 257 -177 357 -14 47 -29 96 -34 110 -19 51 -40 237 -40 349 0 197 48 401
139 592 37 80 57 114 143 242 57 86 212 237 320 311 54 37 148 91 210 120 121
57 302 113 408 126 36 5 142 7 235 5 l170 -3 95 -21z m-1590 -610 c0 -5 -18
-45 -39 -89 -49 -98 -94 -210 -112 -279 -7 -29 -18 -53 -25 -53 -16 0 -22 35
-28 173 l-5 108 17 6 c9 4 50 37 90 75 66 62 102 83 102 59z m2671 -54 c31
-29 70 -64 88 -79 l31 -26 -5 -59 c-3 -32 -7 -93 -11 -136 l-6 -78 -16 3 -17
3 -8 50 c-4 28 -12 54 -18 60 -5 5 -9 17 -9 26 0 19 -51 140 -92 217 -15 29
-28 57 -28 62 0 24 39 5 91 -43z m222 -309 c34 -143 40 -195 44 -383 l4 -190
-15 -90 c-25 -145 -49 -235 -62 -235 -8 0 -15 25 -19 68 -7 72 -28 132 -54
156 l-16 15 1 238 1 238 32 47 32 47 6 80 c4 51 10 81 17 81 7 0 20 -33 29
-72z m-3169 26 c3 -9 6 -27 6 -41 0 -43 21 -100 49 -130 l26 -29 -1 -237 -1
-238 -25 -27 c-28 -29 -43 -71 -53 -144 -3 -27 -11 -48 -18 -48 -26 0 -77 292
-77 438 0 104 24 314 47 405 16 65 34 84 47 51z m-148 -41 c-3 -16 -15 -86
-26 -158 -32 -214 -27 -347 27 -637 l5 -28 -19 0 c-38 0 -94 78 -148 205 -37
87 -65 142 -89 174 -14 19 -26 39 -26 43 0 5 15 31 34 58 19 28 44 75 55 105
32 86 88 191 122 230 17 19 40 35 51 35 l20 0 -6 -27z m3496 -12 c42 -50 51
-67 123 -241 10 -25 34 -66 52 -91 18 -26 33 -50 33 -54 0 -3 -11 -21 -24 -38
-14 -18 -39 -64 -56 -102 -100 -223 -140 -285 -183 -285 l-18 0 6 48 c4 26 13
79 22 119 l15 72 -5 213 c-3 117 -10 236 -15 263 -5 28 -13 69 -17 93 l-8 42
21 0 c11 0 35 -17 54 -39z m-3228 -762 c9 -59 71 -221 117 -308 68 -128 47
-134 -73 -22 -47 43 -90 80 -96 82 l-11 4 9 65 c5 36 10 93 10 127 0 34 3 68
6 77 11 30 31 16 38 -25z m2921 19 c2 -7 8 -69 14 -138 l9 -125 -41 -35 c-23
-19 -64 -56 -91 -82 -47 -45 -76 -60 -76 -39 0 10 19 57 65 157 48 108 55 125
55 138 0 8 7 27 15 42 8 16 15 44 15 62 l0 32 15 0 c9 0 18 -6 20 -12z m-2843
-475 l51 -37 54 -4 54 -5 38 -51 c21 -28 93 -104 160 -168 l122 -117 6 -52 6
-52 35 -46 c19 -25 39 -47 44 -49 14 -6 9 -32 -6 -32 -8 0 -16 3 -18 8 -1 4
-25 18 -52 32 -74 37 -171 114 -282 225 -112 111 -153 161 -231 278 -52 79
-63 107 -42 107 6 0 34 -17 61 -37z m2808 26 c0 -22 -114 -184 -200 -283 -95
-110 -183 -192 -282 -261 -72 -51 -146 -95 -159 -95 -17 0 -9 28 15 57 35 42
56 87 63 138 l6 45 84 71 c46 39 119 113 162 164 l80 92 59 5 59 4 44 37 c44
37 69 46 69 26z m-2890 -186 c82 -121 167 -218 270 -311 52 -47 132 -110 178
-140 l83 -54 -3 -17 -3 -16 -44 -3 c-45 -3 -148 26 -266 75 -33 14 -87 31
-119 37 l-60 13 -12 64 c-7 35 -32 114 -57 174 -24 61 -48 130 -52 153 -8 50
2 102 20 102 7 0 36 -35 65 -77z m2978 5 c-4 -69 -15 -106 -79 -268 -12 -30
-24 -77 -28 -105 l-6 -50 -45 -6 c-25 -4 -76 -19 -115 -34 -38 -15 -108 -40
-154 -56 l-85 -30 -50 3 -51 3 -2 15 c-2 9 29 36 82 69 53 34 131 100 208 175
149 147 170 171 247 286 34 51 52 70 67 70 l15 0 -4 -72z m-2293 -297 c3 -5
40 -26 83 -47 42 -20 88 -42 102 -49 32 -17 191 -65 213 -65 20 0 23 -29 5
-34 -7 -3 -72 -7 -144 -10 l-132 -5 -25 37 c-14 20 -51 63 -81 96 -31 32 -56
65 -56 72 0 16 26 19 35 5z m1535 -26 c0 -8 -28 -45 -61 -82 -34 -38 -68 -78
-77 -91 l-15 -22 -46 5 c-25 2 -85 7 -133 11 l-88 6 0 13 c0 8 38 26 98 45 53
17 142 53 197 80 55 27 106 49 113 49 6 1 12 -6 12 -14z m-845 -181 c70 -4
144 -2 204 6 l93 12 32 -31 c18 -17 37 -31 43 -31 6 0 24 -7 39 -15 16 -8 50
-15 77 -15 l47 0 0 -15 c0 -9 -14 -16 -37 -20 -21 -4 -65 -13 -98 -21 -33 -8
-122 -19 -197 -26 l-138 -12 -128 12 c-70 7 -155 19 -187 26 -33 8 -77 17 -97
21 -24 4 -38 11 -38 20 l0 15 34 0 c53 0 132 30 163 62 l28 29 25 -5 c14 -2
75 -8 135 -12z m505 -225 c0 -6 -12 -27 -27 -46 l-28 -36 -160 -79 c-88 -43
-172 -86 -187 -96 l-28 -17 -27 17 c-16 10 -71 38 -123 64 -52 25 -122 59
-156 75 -66 32 -124 82 -124 107 l0 15 48 -7 c187 -28 262 -35 374 -36 120 0
340 23 383 41 29 11 55 11 55 -2z"/>
<path d="M2180 3414 c-52 -8 -104 -18 -115 -22 -11 -5 -51 -19 -90 -32 -105
-34 -207 -85 -288 -142 -40 -28 -74 -54 -77 -57 -3 -3 -25 -24 -50 -46 -129
-113 -255 -311 -319 -502 -34 -99 -43 -163 -48 -318 -5 -158 4 -239 38 -360
26 -91 35 -113 87 -214 82 -160 221 -321 377 -433 72 -51 218 -122 305 -147
41 -12 90 -26 108 -32 58 -19 203 -27 333 -19 69 4 136 13 147 19 11 6 31 11
45 11 35 0 161 45 242 86 77 40 156 88 195 119 62 49 209 207 253 270 60 86
116 203 152 313 32 99 43 163 52 296 6 95 -5 211 -29 316 -18 80 -60 193 -99
270 -50 96 -54 102 -119 185 -83 106 -174 191 -269 253 -161 104 -311 161
-486 186 -129 19 -214 19 -345 0z m261 -70 c60 -17 149 -72 149 -92 0 -7 -12
-17 -27 -23 -59 -22 -119 -53 -143 -74 -14 -12 -38 -26 -54 -29 l-29 -7 -31
30 c-33 31 -112 75 -158 86 -16 4 -28 13 -28 20 0 18 70 62 131 80 30 10 59
18 64 20 25 8 76 4 126 -11z m306 -53 c110 -41 133 -52 133 -68 0 -16 -9 -16
-51 1 -19 7 -58 16 -88 20 l-54 7 -18 22 c-20 24 -25 47 -10 47 5 0 45 -13 88
-29z m-697 7 c-1 -29 -29 -47 -91 -58 -35 -6 -68 -15 -74 -20 -5 -4 -21 -11
-34 -15 -13 -4 -33 -14 -44 -24 -36 -28 -103 -95 -113 -113 -5 -9 -26 -19 -46
-23 l-38 -7 0 13 c0 8 6 21 13 29 19 24 131 108 163 122 16 7 31 15 34 19 8
11 92 51 145 70 60 21 85 23 85 7z m86 -131 c22 -6 62 -25 88 -42 l47 -29 -3
-19 c-2 -12 -24 -26 -61 -42 -31 -12 -78 -40 -103 -61 -65 -55 -72 -59 -81
-50 -12 11 -8 172 4 188 6 7 13 25 17 41 l6 27 23 0 c12 0 40 -6 63 -13z m537
-24 c9 -21 19 -59 23 -85 8 -61 -3 -138 -20 -138 -7 0 -21 10 -32 22 -28 31
-130 96 -164 103 l-30 7 0 21 c0 14 13 31 34 45 39 27 121 60 152 61 l21 1 16
-37z m-706 0 c-23 -123 -31 -153 -40 -153 -6 0 -42 12 -79 27 -38 14 -68 31
-68 38 0 6 15 25 33 42 34 34 109 72 141 73 l18 0 -5 -27z m903 -15 c51 -33
77 -68 66 -87 -4 -6 -15 -11 -26 -11 -10 0 -44 -13 -75 -30 -31 -16 -60 -30
-65 -30 -4 0 -10 33 -13 73 -4 39 -9 85 -13 101 l-7 29 43 -7 c23 -4 64 -21
90 -38z m180 -14 c33 -25 60 -52 60 -61 l0 -15 -31 6 c-47 9 -138 116 -99 116
5 0 37 -21 70 -46z m-767 -191 c-4 -32 -7 -77 -7 -100 1 -24 -3 -43 -8 -43 -5
0 -28 10 -51 22 -68 35 -76 38 -97 38 -33 0 -34 27 -2 58 16 16 36 32 43 36 8
4 30 16 49 26 19 10 45 19 58 20 l23 0 -8 -57z m220 42 c19 -8 51 -30 71 -48
36 -35 48 -77 22 -77 -8 0 -42 -12 -76 -26 -33 -15 -62 -25 -64 -23 -2 2 -6
46 -9 97 l-7 92 14 0 c7 0 29 -7 49 -15z m-867 -102 c-1 -60 3 -129 8 -154 l8
-46 -42 -7 c-49 -8 -106 -35 -173 -82 -26 -19 -51 -34 -56 -34 -15 0 -21 29
-21 102 l0 70 30 63 c35 73 99 135 175 171 28 13 55 24 61 24 7 0 10 -38 10
-107z m216 81 c44 -22 88 -64 88 -84 l0 -17 -55 -19 c-31 -10 -78 -35 -105
-56 -28 -21 -54 -38 -59 -38 -5 0 -14 22 -21 50 -12 51 -7 112 12 164 l11 28
48 -5 c26 -3 63 -13 81 -23z m1165 -11 l15 -38 -5 -70 c-3 -38 -8 -78 -12 -87
-7 -19 -35 -25 -35 -9 0 16 -115 87 -164 101 l-46 13 0 18 c0 11 22 32 58 55
64 41 92 52 140 53 l33 1 16 -37z m142 13 c30 -13 70 -39 89 -57 19 -19 51
-58 70 -88 l34 -53 5 -58 c7 -74 -5 -170 -20 -170 -7 0 -28 17 -47 36 -38 40
-161 104 -197 104 -14 0 -23 6 -23 16 0 9 7 44 16 78 l16 61 -6 55 c-4 30 -9
64 -12 77 l-6 23 13 0 c8 -1 38 -11 68 -24z m-779 -107 l0 -40 -17 3 c-19 3
-29 39 -19 64 3 8 12 14 21 14 l15 0 0 -41z m-424 -100 c-3 -17 -6 -56 -6 -85
l0 -54 -12 0 c-7 0 -35 11 -63 25 -27 13 -58 25 -67 25 -26 0 -23 38 5 61 31
28 97 59 126 59 l24 0 -7 -31z m891 6 c56 -30 83 -53 83 -71 0 -7 -10 -16 -22
-19 -13 -4 -42 -15 -65 -26 -24 -10 -49 -19 -57 -19 l-15 0 -6 48 c-3 26 -8
62 -11 80 l-5 32 25 0 c14 0 46 -11 73 -25z m-799 -102 l-3 -38 -17 -3 -18 -3
0 40 0 41 21 0 20 0 -3 -37z m562 -8 l0 -35 -16 0 c-23 0 -54 19 -54 33 0 12
34 33 58 36 7 1 12 -12 12 -34z m90 0 l0 -35 -15 0 -15 0 0 35 0 35 15 0 15 0
0 -35z m-552 19 c12 -4 22 -11 22 -17 0 -12 -31 -36 -47 -37 -8 0 -13 12 -13
30 0 17 3 30 8 30 4 0 17 -3 30 -6z m-524 -106 c-5 -24 -8 -87 -7 -142 l3 -98
-28 7 c-50 12 -88 35 -131 79 l-44 44 6 24 c11 41 140 126 196 128 l14 0 -9
-42z m1533 23 c59 -27 133 -98 133 -127 0 -44 -98 -119 -184 -140 l-29 -7 8
29 c11 38 11 179 1 227 l-9 37 19 0 c11 0 38 -9 61 -19z m-1380 -46 c26 -24
51 -45 56 -45 4 0 7 -9 7 -20 0 -10 -10 -25 -22 -31 -13 -6 -42 -27 -65 -45
-23 -19 -46 -34 -51 -34 -23 0 -29 102 -11 176 7 25 17 44 25 44 7 0 35 -20
61 -45z m1244 5 c9 -32 11 -134 3 -154 -3 -9 -12 -16 -18 -16 -7 0 -23 12 -37
26 -13 14 -36 32 -51 40 -16 8 -28 22 -28 32 0 21 90 102 110 99 8 -1 17 -13
21 -27z m-1701 -44 l11 -34 -20 -63 c-27 -81 -27 -186 -1 -271 l19 -63 -11
-32 c-7 -18 -17 -33 -24 -33 -6 0 -14 10 -18 22 -3 13 -11 76 -17 140 l-13
118 12 103 c7 56 15 112 18 125 4 12 12 22 19 22 8 0 19 -15 25 -34z m960 -26
l0 -40 -16 0 c-22 0 -54 19 -54 31 0 14 41 48 58 49 7 0 12 -14 12 -40z m191
30 c10 -6 19 -20 19 -30 l0 -20 -24 0 c-23 0 -36 16 -36 46 0 17 14 18 41 4z
m977 -70 c15 -87 11 -299 -8 -372 -7 -27 -18 -48 -25 -48 -8 0 -16 19 -20 48
l-6 47 15 50 c20 64 20 147 0 225 -9 37 -13 77 -9 97 l6 34 17 -3 17 -3 13
-75z m-848 -24 c0 -19 -107 -96 -132 -96 -11 0 -18 7 -18 18 0 11 23 33 56 55
59 39 94 47 94 23z m-402 -31 c28 -20 52 -42 52 -50 0 -8 -5 -15 -11 -15 -20
0 -119 72 -119 86 0 8 6 14 13 14 7 0 36 -16 65 -35z m672 9 c42 -28 53 -54
22 -54 -25 0 -92 48 -92 65 0 22 26 18 70 -11z m-950 3 c0 -13 -68 -57 -89
-57 -23 0 -10 31 22 50 37 23 67 26 67 7z m-514 -20 c2 -7 27 -31 54 -52 28
-22 50 -45 50 -51 0 -7 -22 -26 -49 -43 -27 -18 -52 -38 -55 -46 -3 -8 -14
-15 -25 -15 l-20 0 -6 55 c-4 30 -4 80 0 110 l6 55 20 0 c11 0 22 -6 25 -13z
m1944 -102 l0 -105 -13 0 c-7 0 -26 14 -43 31 -16 17 -41 37 -56 45 -16 8 -28
21 -28 28 0 8 15 23 33 35 18 11 43 31 56 45 14 14 30 26 38 26 l13 0 0 -105z
m-650 5 l0 -50 -15 0 -15 0 0 50 0 50 15 0 15 0 0 -50z m104 24 c19 -7 21 -35
4 -52 -19 -19 -48 -15 -48 7 0 26 10 51 20 51 5 0 15 -3 24 -6z m-856 -36 c4
-31 -12 -36 -42 -13 -25 19 -14 47 16 43 l23 -3 3 -27z m196 26 c9 -3 16 -15
16 -26 0 -22 -26 -47 -47 -48 -14 0 -17 37 -7 64 7 17 14 19 38 10z m456 -34
c0 -33 -15 -38 -45 -16 -25 18 -13 46 20 46 l25 0 0 -30z m-974 -137 c-1 -60
3 -123 7 -140 l9 -33 -29 0 c-15 0 -47 9 -69 19 -55 25 -124 88 -124 114 0 11
20 40 45 64 48 46 107 80 141 82 l20 1 0 -107z m1535 88 c24 -11 63 -36 87
-56 l42 -37 0 -28 0 -29 -42 -33 c-57 -44 -120 -78 -148 -78 l-23 0 8 48 c11
65 12 161 2 200 l-9 32 20 0 c11 0 39 -9 63 -19z m-1273 -21 c17 -11 32 -27
32 -36 l0 -16 -26 6 c-34 9 -73 37 -74 54 0 18 31 15 68 -8z m992 -2 c0 -13
-53 -48 -71 -48 -17 0 -9 28 14 43 27 19 57 22 57 5z m144 -14 c10 -26 7 -114
-6 -155 -6 -22 -15 -39 -20 -39 -5 0 -29 16 -52 35 -24 19 -48 35 -55 35 -6 0
-11 10 -11 23 0 14 10 29 28 39 15 9 40 30 56 47 17 17 35 31 42 31 6 0 15 -7
18 -16z m-1248 -39 c25 -19 50 -35 55 -35 5 0 9 -9 9 -20 0 -11 -12 -26 -27
-34 -16 -8 -39 -26 -52 -40 -14 -14 -32 -26 -42 -26 -9 0 -19 10 -23 23 -3 12
-6 55 -6 95 l0 72 20 0 c11 0 40 -16 66 -35z m708 -37 l11 -17 -20 -15 c-33
-25 -45 -19 -45 20 l0 35 21 -3 c12 -2 27 -11 33 -20z m-206 -20 c4 -31 -12
-36 -42 -13 -25 19 -14 47 16 43 l23 -3 3 -27z m292 -63 c0 -8 -11 -17 -25
-21 -14 -3 -25 -10 -25 -15 0 -5 -7 -9 -15 -9 -8 0 -15 7 -15 15 0 8 6 15 14
15 8 0 16 7 20 15 7 19 46 20 46 0z m-365 -7 c29 -13 34 -38 8 -38 -22 1 -53
23 -53 39 0 14 12 14 45 -1z m1151 -44 c9 -64 -3 -169 -26 -213 -10 -21 -38
-58 -62 -84 -43 -46 -145 -107 -179 -107 l-18 0 6 108 6 108 -13 37 -12 38 12
14 c7 8 24 15 38 15 37 0 126 48 169 92 21 20 46 37 55 38 l17 0 7 -46z
m-1923 2 c55 -44 108 -72 169 -87 l49 -13 -8 -41 c-10 -51 -10 -179 0 -227 l8
-38 -16 0 c-27 0 -138 59 -174 93 -18 18 -49 63 -67 102 l-34 69 0 72 c0 76 6
104 22 104 5 0 28 -15 51 -34z m517 -62 c0 -19 5 -55 11 -80 6 -25 9 -47 6
-50 -17 -17 -177 67 -177 93 0 6 21 19 48 28 26 8 56 22 66 30 32 25 46 18 46
-21z m660 1 l0 -35 -14 0 c-45 0 -61 32 -28 56 29 23 42 16 42 -21z m224 5
c32 -17 65 -30 72 -30 20 0 17 -23 -4 -41 -27 -23 -123 -69 -145 -69 l-19 0 5
23 c3 12 9 50 13 85 3 34 9 62 13 62 3 0 33 -14 65 -30z m-784 -15 l0 -35 -15
0 -15 0 0 35 0 35 15 0 15 0 0 -35z m94 29 c9 -3 16 -14 16 -24 0 -16 -18 -30
-41 -30 -5 0 -9 14 -9 30 0 31 6 35 34 24z m-354 -154 c32 -22 84 -48 114 -57
31 -9 56 -23 56 -29 0 -7 -20 -30 -44 -51 -44 -39 -123 -73 -169 -73 l-24 0
-14 48 c-14 48 -17 155 -6 186 4 9 11 16 17 16 6 0 38 -18 70 -40z m1224 -30
l8 -65 -17 -57 -16 -58 -22 0 c-21 0 -103 28 -122 42 -5 4 -28 22 -49 41 l-39
34 6 16 c4 10 16 17 27 17 25 0 101 38 150 74 19 15 41 25 50 24 l15 -3 9 -65z
m-639 5 c9 -65 -1 -125 -19 -125 -16 0 -26 31 -26 81 0 104 34 137 45 44z
m-115 -24 c0 -21 5 -62 10 -91 6 -29 8 -55 6 -58 -10 -9 -83 22 -121 52 -22
17 -43 35 -47 41 -13 18 -8 37 11 42 10 2 40 15 67 28 27 13 55 24 62 24 7 1
12 -13 12 -38z m290 0 c53 -19 68 -35 52 -56 -20 -29 -96 -77 -128 -82 l-37
-6 6 33 c4 18 7 57 7 87 l0 55 23 -5 c12 -3 47 -15 77 -26z m144 -145 c8 -63
-1 -150 -21 -188 -7 -16 -22 -28 -31 -28 -26 0 -111 30 -149 52 -30 18 -63 58
-63 76 0 5 21 15 48 22 54 15 114 50 156 92 17 15 35 28 42 28 7 0 14 -22 18
-54z m-606 16 c43 -37 118 -77 160 -86 l32 -8 0 -17 c0 -18 -27 -46 -70 -73
-23 -14 -127 -48 -148 -48 -13 0 -39 67 -47 118 -3 24 -3 66 1 93 l7 49 16 0
c9 0 31 -13 49 -28z m-141 -104 c6 -35 14 -74 18 -87 l8 -24 -42 7 c-49 8
-141 71 -141 98 l0 17 38 11 c20 6 48 17 62 25 14 8 30 14 35 15 6 0 16 -28
22 -62z m908 37 c38 -13 71 -29 73 -35 5 -13 -38 -56 -80 -83 -15 -9 -46 -20
-69 -23 l-42 -7 7 24 c4 13 12 52 19 87 6 34 14 62 17 62 3 -1 36 -12 75 -25z
m-1111 -100 c67 -68 141 -109 217 -121 l44 -7 28 -29 c55 -59 25 -63 -94 -13
-45 20 -118 57 -160 82 -90 54 -179 128 -179 150 l0 15 41 -7 41 -7 62 -63z
m1376 60 c0 -8 -42 -46 -92 -83 -51 -37 -106 -76 -121 -85 -39 -25 -217 -97
-239 -97 -10 0 -18 7 -18 14 0 23 60 63 105 71 22 4 58 15 80 26 79 38 117 67
156 116 29 36 56 49 107 52 13 1 22 -5 22 -14z m-710 -89 c45 -41 132 -86 166
-86 55 0 12 -51 -86 -101 l-45 -23 -90 1 -90 1 -45 21 c-64 30 -104 66 -97 85
4 9 13 16 22 16 24 0 104 43 155 83 25 20 51 36 59 36 7 1 30 -14 51 -33z"/>
</g>
</svg>
